HIERARCHY
ROOT Hips
{
	OFFSET 0.000000 83.214638 0.000000
	CHANNELS 6 Xposition Yposition Zposition Xrotation Yrotation Zrotation
	JOINT Pelvis
	{
		OFFSET 0.000000 0.000000 0.000000
		CHANNELS 3 Xrotation Yrotation Zrotation
		JOINT LeftUpLeg
		{
			OFFSET 8.479700 -4.795502 -0.379100
			CHANNELS 3 Xrotation Yrotation Zrotation
			JOINT LeftLeg
			{
				OFFSET 0.024144 -32.555107 0.112900
				CHANNELS 3 Xrotation Yrotation Zrotation
				JOINT LeftFoot
				{
					OFFSET -0.024144 -32.638630 -3.012600
					CHANNELS 3 Xrotation Yrotation Zrotation
					JOINT LeftToeBase
					{
						OFFSET 0.970200 -13.225400 11.864200
						CHANNELS 3 Xrotation Yrotation Zrotation
						End Site
						{
							OFFSET 0.000000 12.319262 0.000000
						}
					}
					JOINT LFootTongue
					{
						OFFSET 1.142400 -1.059800 6.665200
						CHANNELS 3 Xrotation Yrotation Zrotation
						End Site
						{
							OFFSET 0.000000 12.319262 0.000000
						}
					}
				}
				JOINT LeftPantLeg
				{
					OFFSET 0.918482 -16.533964 -2.284700
					CHANNELS 3 Xrotation Yrotation Zrotation
					End Site
					{
						OFFSET 0.350399 24.744368 0.000000
					}
				}
			}
		}
		JOINT RightUpLeg
		{
			OFFSET -8.479700 -4.795502 -0.379100
			CHANNELS 3 Xrotation Yrotation Zrotation
			JOINT RightLeg
			{
				OFFSET -0.023144 -32.555092 0.112900
				CHANNELS 3 Xrotation Yrotation Zrotation
				JOINT RightFoot
				{
					OFFSET 0.023144 -32.638641 -3.012700
					CHANNELS 3 Xrotation Yrotation Zrotation
					JOINT RightToeBase
					{
						OFFSET -0.970200 -13.225400 11.864200
						CHANNELS 3 Xrotation Yrotation Zrotation
						End Site
						{
							OFFSET 0.000000 12.319244 0.000000
						}
					}
					JOINT RFootTongue
					{
						OFFSET -1.142200 -1.059800 6.665200
						CHANNELS 3 Xrotation Yrotation Zrotation
						End Site
						{
							OFFSET 0.000000 12.319243 0.000000
						}
					}
				}
				JOINT RightPantLeg
				{
					OFFSET -0.919482 -16.533978 -2.284800
					CHANNELS 3 Xrotation Yrotation Zrotation
					End Site
					{
						OFFSET -0.350400 24.744419 0.000000
					}
				}
			}
		}
	}
	JOINT Spine
	{
		OFFSET 0.000000 7.722000 1.166200
		CHANNELS 3 Xrotation Yrotation Zrotation
		JOINT Spine1
		{
			OFFSET 0.000000 12.024101 0.248800
			CHANNELS 3 Xrotation Yrotation Zrotation
			JOINT Spine2
			{
				OFFSET 0.000000 11.502998 -0.491200
				CHANNELS 3 Xrotation Yrotation Zrotation
				JOINT Neck
				{
					OFFSET 0.000000 18.430702 -3.123100
					CHANNELS 3 Xrotation Yrotation Zrotation
					JOINT Head
					{
						OFFSET 0.000000 9.051102 1.034000
						CHANNELS 3 Xrotation Yrotation Zrotation
						JOINT HairB
						{
							OFFSET 0.208400 24.786102 24.822300
							CHANNELS 3 Xrotation Yrotation Zrotation
							End Site
							{
								OFFSET 0.000000 32.263779 0.000000
							}
						}
						JOINT HairA
						{
							OFFSET -7.081100 24.428299 23.196600
							CHANNELS 3 Xrotation Yrotation Zrotation
							End Site
							{
								OFFSET 0.000000 32.263779 0.000000
							}
						}
						JOINT Hat
						{
							OFFSET 16.728800 15.048294 -15.439601
							CHANNELS 3 Xrotation Yrotation Zrotation
							End Site
							{
								OFFSET 0.000000 32.263779 0.000000
							}
						}
					}
				}
				JOINT LeftShoulder
				{
					OFFSET 6.197800 13.665199 -4.064700
					CHANNELS 3 Xrotation Yrotation Zrotation
					JOINT LeftArm
					{
						OFFSET 7.778100 -0.187103 -1.709300
						CHANNELS 3 Xrotation Yrotation Zrotation
						JOINT LeftForeArm
						{
							OFFSET 22.049376 0.000000 0.000000
							CHANNELS 3 Xrotation Yrotation Zrotation
							JOINT LeftHand
							{
								OFFSET 23.009392 0.000000 0.000000
								CHANNELS 3 Xrotation Yrotation Zrotation
								JOINT LeftHandThumb1
								{
									OFFSET 3.507191 -2.063065 3.133727
									CHANNELS 3 Xrotation Yrotation Zrotation
									JOINT LeftHandThumb2
									{
										OFFSET 3.101337 -1.790558 1.790558
										CHANNELS 3 Xrotation Yrotation Zrotation
										JOINT LeftHandThumb3
										{
											OFFSET 3.058640 -1.765907 1.765906
											CHANNELS 3 Xrotation Yrotation Zrotation
											End Site
											{
												OFFSET -0.415260 3.926476 -0.049563
											}
										}
									}
								}
								JOINT LeftHandIndex1
								{
									OFFSET 11.334419 -0.901459 3.706815
									CHANNELS 3 Xrotation Yrotation Zrotation
									JOINT LeftHandIndex2
									{
										OFFSET 3.283112 0.000000 0.000000
										CHANNELS 3 Xrotation Yrotation Zrotation
										JOINT LeftHandIndex3
										{
											OFFSET 3.323853 0.000000 0.000000
											CHANNELS 3 Xrotation Yrotation Zrotation
											End Site
											{
												OFFSET -1.135597 3.097809 0.402452
											}
										}
									}
								}
								JOINT LeftHandMiddle1
								{
									OFFSET 11.335861 0.000000 0.000000
									CHANNELS 3 Xrotation Yrotation Zrotation
									JOINT LeftHandMiddle2
									{
										OFFSET 3.410492 0.000000 0.000000
										CHANNELS 3 Xrotation Yrotation Zrotation
										JOINT LeftHandMiddle3
										{
											OFFSET 3.312172 0.000000 0.000000
											CHANNELS 3 Xrotation Yrotation Zrotation
											End Site
											{
												OFFSET -1.150200 3.080154 0.400270
											}
										}
									}
								}
								JOINT LeftHandRing1
								{
									OFFSET 11.514786 -0.013176 -3.003090
									CHANNELS 3 Xrotation Yrotation Zrotation
									JOINT LeftHandRing2
									{
										OFFSET 3.053307 0.000000 0.000000
										CHANNELS 3 Xrotation Yrotation Zrotation
										JOINT LeftHandRing3
										{
											OFFSET 3.295807 0.000000 0.000000
											CHANNELS 3 Xrotation Yrotation Zrotation
											End Site
											{
												OFFSET -1.281006 3.013344 0.375733
											}
										}
									}
								}
								JOINT LeftHandPinky1
								{
									OFFSET 10.518692 -0.960396 -5.730441
									CHANNELS 3 Xrotation Yrotation Zrotation
									JOINT LeftHandPinky2
									{
										OFFSET 2.861649 0.000000 0.000000
										CHANNELS 3 Xrotation Yrotation Zrotation
										JOINT LeftHandPinky3
										{
											OFFSET 2.863380 0.000000 0.000000
											CHANNELS 3 Xrotation Yrotation Zrotation
											End Site
											{
												OFFSET -0.843597 2.711159 0.369971
											}
										}
									}
								}
							}
							JOINT LSleeve
							{
								OFFSET 6.676277 -0.344902 -1.011730
								CHANNELS 3 Xrotation Yrotation Zrotation
								End Site
								{
									OFFSET 0.000000 14.885353 0.000000
								}
							}
						}
					}
				}
				JOINT RightShoulder
				{
					OFFSET -6.197800 13.665199 -4.064700
					CHANNELS 3 Xrotation Yrotation Zrotation
					JOINT RightArm
					{
						OFFSET -7.778100 -0.187103 -1.709300
						CHANNELS 3 Xrotation Yrotation Zrotation
						JOINT RightForeArm
						{
							OFFSET -22.049376 0.000000 0.000000
							CHANNELS 3 Xrotation Yrotation Zrotation
							JOINT RightHand
							{
								OFFSET -23.009392 0.000000 0.000000
								CHANNELS 3 Xrotation Yrotation Zrotation
								JOINT RightHandThumb1
								{
									OFFSET -3.507191 -2.063065 3.133727
									CHANNELS 3 Xrotation Yrotation Zrotation
									JOINT RightHandThumb2
									{
										OFFSET -3.101337 -1.790558 1.790558
										CHANNELS 3 Xrotation Yrotation Zrotation
										JOINT RightHandThumb3
										{
											OFFSET -3.058640 -1.765907 1.765906
											CHANNELS 3 Xrotation Yrotation Zrotation
											End Site
											{
												OFFSET 0.415260 3.926476 -0.049563
											}
										}
									}
								}
								JOINT RightHandIndex1
								{
									OFFSET -11.334419 -0.901459 3.706815
									CHANNELS 3 Xrotation Yrotation Zrotation
									JOINT RightHandIndex2
									{
										OFFSET -3.283112 0.000000 0.000000
										CHANNELS 3 Xrotation Yrotation Zrotation
										JOINT RightHandIndex3
										{
											OFFSET -3.323853 0.000000 0.000000
											CHANNELS 3 Xrotation Yrotation Zrotation
											End Site
											{
												OFFSET 1.135597 3.097809 0.402452
											}
										}
									}
								}
								JOINT RightHandMiddle1
								{
									OFFSET -11.335861 0.000000 0.000000
									CHANNELS 3 Xrotation Yrotation Zrotation
									JOINT RightHandMiddle2
									{
										OFFSET -3.410492 0.000000 0.000000
										CHANNELS 3 Xrotation Yrotation Zrotation
										JOINT RightHandMiddle3
										{
											OFFSET -3.312172 0.000000 0.000000
											CHANNELS 3 Xrotation Yrotation Zrotation
											End Site
											{
												OFFSET 1.150200 3.080154 0.400270
											}
										}
									}
								}
								JOINT RightHandRing1
								{
									OFFSET -11.514786 -0.013176 -3.003090
									CHANNELS 3 Xrotation Yrotation Zrotation
									JOINT RightHandRing2
									{
										OFFSET -3.053307 0.000000 0.000000
										CHANNELS 3 Xrotation Yrotation Zrotation
										JOINT RightHandRing3
										{
											OFFSET -3.295807 0.000000 0.000000
											CHANNELS 3 Xrotation Yrotation Zrotation
											End Site
											{
												OFFSET 1.281006 3.013344 0.375733
											}
										}
									}
								}
								JOINT RightHandPinky1
								{
									OFFSET -10.518692 -0.960396 -5.730441
									CHANNELS 3 Xrotation Yrotation Zrotation
									JOINT RightHandPinky2
									{
										OFFSET -2.861649 0.000000 0.000000
										CHANNELS 3 Xrotation Yrotation Zrotation
										JOINT RightHandPinky3
										{
											OFFSET -2.863380 0.000000 0.000000
											CHANNELS 3 Xrotation Yrotation Zrotation
											End Site
											{
												OFFSET 0.843597 2.711159 0.369971
											}
										}
									}
								}
							}
							JOINT RSleeve
							{
								OFFSET -6.676277 -0.344902 -1.011730
								CHANNELS 3 Xrotation Yrotation Zrotation
								End Site
								{
									OFFSET 0.000000 14.885353 0.000000
								}
							}
						}
					}
				}
				JOINT Backpack
				{
					OFFSET 0.000000 -2.471497 36.677502
					CHANNELS 3 Xrotation Yrotation Zrotation
					End Site
					{
						OFFSET 0.000000 20.427315 0.000000
					}
				}
				JOINT Hood
				{
					OFFSET 0.000000 18.754097 -10.431000
					CHANNELS 3 Xrotation Yrotation Zrotation
					JOINT Hood1
					{
						OFFSET 0.000000 -5.011002 -7.685901
						CHANNELS 3 Xrotation Yrotation Zrotation
						End Site
						{
							OFFSET 0.000000 9.175140 0.000000
						}
					}
				}
				JOINT LHoodieString
				{
					OFFSET 5.250500 16.397697 3.089900
					CHANNELS 3 Xrotation Yrotation Zrotation
					JOINT LHoodieString1
					{
						OFFSET 0.257700 -6.364304 3.694600
						CHANNELS 3 Xrotation Yrotation Zrotation
						JOINT LHoodieString2
						{
							OFFSET 0.000000 -9.643799 2.679100
							CHANNELS 3 Xrotation Yrotation Zrotation
							End Site
							{
								OFFSET 0.000000 10.009018 0.000000
							}
						}
					}
				}
				JOINT RHoodieString
				{
					OFFSET -5.250500 16.397697 3.089900
					CHANNELS 3 Xrotation Yrotation Zrotation
					JOINT RHoodieString1
					{
						OFFSET -0.257700 -6.364304 3.694600
						CHANNELS 3 Xrotation Yrotation Zrotation
						JOINT RHoodieString2
						{
							OFFSET 0.000000 -9.643799 2.679100
							CHANNELS 3 Xrotation Yrotation Zrotation
							End Site
							{
								OFFSET 0.000000 10.009018 0.000000
							}
						}
					}
				}
			}
			JOINT LBackpack_Strap
			{
				OFFSET 15.223200 -7.719803 -6.610900
				CHANNELS 3 Xrotation Yrotation Zrotation
				End Site
				{
					OFFSET 0.000000 16.040596 0.000000
				}
			}
			JOINT RBackpack_Strap
			{
				OFFSET -15.223000 -7.719803 -6.610900
				CHANNELS 3 Xrotation Yrotation Zrotation
				End Site
				{
					OFFSET 0.000000 16.040596 0.000000
				}
			}
		}
	}
	JOINT BoyFacialAnim_Joint
	{
		OFFSET 1.000000 -82.208099 -1.550900
		CHANNELS 3 Xrotation Yrotation Zrotation
		End Site
		{
			OFFSET 0.000000 30.012791 0.000000
		}
	}
}
MOTION
Frames: 5
Frame Time: 0.016667
2.987459 7.227997 8.714653 87.459985 0.095469 1.048299 0.000000 -0.000000 -0.000000 -12.590648 6.458317 9.312278 15.829399 10.640495 1.551032 46.278923 28.026069 -17.852245 -0.000002 0.000001 0.000001 -0.000002 0.000001 0.000002 0.000000 0.000000 0.000000 -13.469933 -7.427299 -11.967028 19.024158 -9.816274 -0.100612 44.787220 -27.704347 27.640901 -0.000003 -0.000000 -0.000001 -0.000003 -0.000000 -0.000001 -0.000000 0.000003 0.000000 3.813350 0.580222 -1.112563 0.793258 0.138200 -0.141419 0.792531 0.141294 -0.141442 -5.136614 -13.863061 6.464564 -18.401115 -57.031017 -18.459160 -0.000000 0.000002 0.000000 -0.000000 0.000002 0.000000 -0.000000 0.000002 0.000000 3.766329 -21.296508 -1.256997 15.600391 -18.626722 -61.954447 0.000010 -18.654963 -0.000007 42.089040 7.016550 -15.750998 -1.540041 3.690165 6.142355 3.939057 7.948719 0.746812 -0.000000 0.000001 0.000000 0.298627 2.009570 -16.903099 0.539682 2.676816 -22.793548 -0.000000 -0.000002 0.000001 0.298067 2.007731 -16.887103 0.540429 2.678573 -22.809562 -0.000000 0.000000 0.000000 0.298627 2.009567 -16.903096 0.539679 2.676805 -22.793555 -0.000001 0.000001 0.000001 1.465424 5.893242 -16.473122 0.545008 -1.382200 -23.265306 -0.000001 0.000001 -0.000000 0.000004 0.000000 0.000001 0.640300 15.700665 9.197083 13.898629 -3.320483 53.523476 -0.000000 31.875318 0.000009 15.264785 -23.834148 10.590712 -1.849252 -3.581799 -6.586140 4.637210 -8.634092 -0.225382 -0.000000 -0.000003 -0.000004 0.480692 -2.544878 21.389427 1.003304 -3.603109 31.111300 -0.000003 0.000001 0.000002 0.480681 -2.544880 21.389427 1.003300 -3.603119 31.111303 -0.000001 0.000001 0.000002 0.480687 -2.544873 21.389424 1.003309 -3.603103 31.111324 0.000001 0.000001 0.000001 0.480688 -2.544874 21.389422 1.003307 -3.603111 31.111303 -0.000002 -0.000000 -0.000003 0.000003 0.000001 -0.000001 0.000000 -0.000000 0.000000 0.000000 -0.000000 0.000000 0.000000 -0.000000 0.000000 0.000000 -0.000000 0.000000 0.000000 -0.000000 0.000000 0.000000 -0.000000 0.000000 0.000000 -0.000000 0.000000 0.000000 -0.000000 0.000000 0.000000 -0.000000 0.000000 0.000000 -0.000000 0.000000 0.000000 -0.000000 0.000000 0.000000 -0.000000 -0.000000 
2.987045 7.229439 8.714775 87.450525 0.099179 1.048753 -0.000000 -0.000000 -0.000000 -12.587624 6.463186 9.316244 15.840824 10.639922 1.549336 46.265680 28.035302 -17.874979 -0.000000 0.000001 -0.000000 -0.000000 0.000001 -0.000000 0.000000 -0.000002 -0.000001 -13.463947 -7.429626 -11.967902 19.024225 -9.809078 -0.096179 44.792183 -27.705629 27.623011 -0.000000 0.000000 -0.000001 -0.000000 0.000000 -0.000001 0.000000 0.000001 0.000001 3.821948 0.577299 -1.111995 0.795021 0.137604 -0.141028 0.794326 0.140705 -0.141052 -5.134272 -13.862901 6.460973 -18.393363 -57.036430 -18.452412 -0.000001 0.000000 -0.000000 -0.000001 0.000000 -0.000000 -0.000001 0.000000 -0.000000 3.774328 -21.342084 -1.254776 15.591968 -18.591048 -61.965279 -0.000001 -18.641618 -0.000001 42.085495 7.002018 -15.750928 -1.540040 3.690173 6.142354 3.939055 7.948682 0.746809 -0.000000 0.000000 -0.000000 0.298632 2.009583 -16.903105 0.539670 2.676802 -22.793545 -0.000000 0.000001 -0.000000 0.298066 2.007722 -16.887107 0.540422 2.678592 -22.809572 -0.000000 -0.000000 -0.000003 0.298632 2.009591 -16.903108 0.539671 2.676787 -22.793559 -0.000001 0.000001 -0.000002 1.465426 5.893242 -16.473120 0.545000 -1.382162 -23.265296 0.000000 0.000001 0.000003 -0.000001 0.000001 0.000001 0.641018 15.689952 9.189852 13.871899 -3.307259 53.531556 0.000000 31.852085 0.000004 15.245643 -23.874469 10.516442 -1.849260 -3.581794 -6.586143 4.637194 -8.634135 -0.225416 -0.000006 -0.000001 -0.000003 0.480692 -2.544890 21.389400 1.003309 -3.603112 31.111310 -0.000001 0.000000 0.000002 0.480685 -2.544890 21.389396 1.003311 -3.603113 31.111324 -0.000001 -0.000001 0.000003 0.480695 -2.544879 21.389407 1.003294 -3.603115 31.111303 0.000000 -0.000001 0.000002 0.480695 -2.544870 21.389405 1.003296 -3.603128 31.111293 -0.000002 0.000002 0.000001 0.000002 -0.000001 -0.000002 -0.000000 -0.000000 0.000000 -0.000000 -0.000000 0.000000 -0.000000 -0.000000 0.000000 -0.000000 -0.000000 0.000000 -0.000000 -0.000000 -0.000000 -0.000000 -0.000000 -0.000000 -0.000000 -0.000000 0.000000 -0.000000 -0.000000 -0.000000 -0.000000 -0.000000 -0.000000 0.000000 0.000000 0.000000 0.000000 0.000000 0.000000 -0.000000 -0.000000 -0.000000 
2.986558 7.231743 8.715324 87.458189 0.103775 1.053733 -0.000000 0.000000 -0.000000 -12.595382 6.458093 9.307138 15.840928 10.639109 1.559823 46.261465 28.048341 -17.920586 -0.000000 0.000001 0.000001 -0.000000 0.000001 0.000001 0.000000 -0.000001 0.000000 -13.474514 -7.431137 -11.976745 19.030280 -9.814752 -0.094118 44.793057 -27.703196 27.640591 -0.000000 -0.000001 0.000003 -0.000000 -0.000001 0.000003 -0.000000 -0.000000 -0.000001 3.812392 0.573467 -1.113615 0.792723 0.136766 -0.140974 0.792048 0.139859 -0.141001 -5.125207 -13.862458 6.457382 -18.396674 -57.041679 -18.453998 -0.000000 0.000002 0.000000 -0.000000 0.000002 0.000000 -0.000000 0.000002 0.000000 3.780982 -21.376645 -1.256569 15.556886 -18.576967 -61.979684 0.000003 -18.573178 0.000003 42.065216 6.975414 -15.756068 -1.540041 3.690211 6.142355 3.939055 7.948690 0.746813 0.000000 0.000001 -0.000001 0.298628 2.009586 -16.903106 0.539668 2.676798 -22.793555 -0.000001 0.000001 -0.000005 0.298069 2.007757 -16.887101 0.540423 2.678572 -22.809581 0.000001 -0.000001 0.000002 0.298631 2.009596 -16.903111 0.539664 2.676795 -22.793554 -0.000001 -0.000001 -0.000000 1.465422 5.893249 -16.473125 0.545008 -1.382158 -23.265296 -0.000000 0.000001 -0.000003 0.000001 -0.000000 0.000001 0.640461 15.698713 9.195481 13.865601 -3.329068 53.534910 0.000025 31.844026 0.000007 15.261216 -23.895919 10.436525 -1.849255 -3.581787 -6.586141 4.637202 -8.634128 -0.225405 -0.000003 -0.000000 -0.000002 0.480690 -2.544892 21.389410 1.003309 -3.603107 31.111300 0.000001 0.000000 0.000004 0.480684 -2.544884 21.389403 1.003299 -3.603116 31.111317 -0.000001 -0.000000 -0.000000 0.480680 -2.544883 21.389400 1.003309 -3.603111 31.111324 0.000002 -0.000000 -0.000001 0.480681 -2.544879 21.389390 1.003317 -3.603116 31.111314 -0.000002 0.000001 0.000000 -0.000000 -0.000000 -0.000001 -0.000000 0.000000 -0.000000 -0.000000 0.000000 -0.000000 -0.000000 0.000000 -0.000000 -0.000000 0.000000 -0.000000 -0.000000 0.000000 -0.000000 -0.000000 0.000000 0.000000 -0.000000 0.000000 -0.000000 -0.000000 0.000000 -0.000000 -0.000000 0.000000 0.000000 0.000000 0.000000 0.000000 0.000000 0.000000 0.000000 -0.000000 0.000000 -0.000000 
2.986147 7.234428 8.715424 87.469561 0.106073 1.058306 -0.000000 0.000000 -0.000000 -12.603189 6.449527 9.294227 15.830650 10.638945 1.572964 46.269317 28.056349 -17.942808 -0.000000 0.000000 -0.000002 -0.000000 0.000000 -0.000002 0.000000 0.000001 0.000001 -13.484652 -7.431847 -11.984869 19.036156 -9.836098 -0.097940 44.790277 -27.697817 27.685771 -0.000002 0.000000 -0.000000 -0.000002 0.000000 -0.000000 -0.000000 0.000000 -0.000001 3.800790 0.570905 -1.113627 0.789975 0.136171 -0.140839 0.789285 0.139252 -0.140869 -5.121404 -13.861858 6.453981 -18.401163 -57.042222 -18.461764 -0.000000 -0.000001 -0.000000 -0.000000 -0.000001 -0.000000 -0.000000 -0.000001 -0.000000 3.780652 -21.372232 -1.259643 15.494904 -18.603306 -61.991774 0.000007 -18.436598 0.000001 42.055572 6.923421 -15.795203 -1.540041 3.690169 6.142352 3.939057 7.948706 0.746810 -0.000000 -0.000001 -0.000000 0.298627 2.009584 -16.903101 0.539682 2.676768 -22.793555 0.000000 -0.000000 -0.000002 0.298066 2.007730 -16.887107 0.540417 2.678573 -22.809564 -0.000002 -0.000001 0.000004 0.298629 2.009579 -16.903106 0.539680 2.676791 -22.793562 -0.000001 0.000001 -0.000002 1.465424 5.893240 -16.473125 0.545009 -1.382177 -23.265294 -0.000000 0.000000 0.000003 0.000003 0.000000 0.000000 0.640984 15.712331 9.191112 13.846823 -3.359453 53.548833 -0.000001 31.824474 0.000002 15.286114 -23.918045 10.367435 -1.849256 -3.581793 -6.586132 4.637193 -8.634139 -0.225406 -0.000004 0.000005 0.000003 0.480685 -2.544881 21.389414 1.003311 -3.603119 31.111303 0.000001 -0.000001 -0.000000 0.480678 -2.544876 21.389417 1.003312 -3.603120 31.111320 0.000000 0.000001 0.000003 0.480689 -2.544867 21.389417 1.003293 -3.603120 31.111303 0.000001 -0.000003 0.000002 0.480682 -2.544869 21.389412 1.003307 -3.603125 31.111303 -0.000003 0.000001 0.000000 0.000002 -0.000001 0.000001 -0.000000 0.000000 0.000000 -0.000000 0.000000 0.000000 -0.000000 0.000000 0.000000 -0.000000 0.000000 0.000000 -0.000000 0.000000 0.000000 -0.000000 0.000000 0.000000 -0.000000 0.000000 0.000000 -0.000000 0.000000 0.000000 -0.000000 0.000000 0.000000 0.000000 -0.000000 0.000000 0.000000 -0.000000 0.000000 -0.000000 0.000000 -0.000000 
2.986077 7.237419 8.714249 87.471815 0.106230 1.059118 -0.000000 0.000000 0.000000 -12.604385 6.445730 9.288177 15.820653 10.639346 1.579640 46.282963 28.056206 -17.928635 -0.000001 -0.000003 -0.000000 -0.000001 -0.000003 -0.000000 -0.000000 0.000000 0.000001 -13.486038 -7.431496 -11.987183 19.044745 -9.857853 -0.104400 44.782525 -27.692806 27.729906 0.000001 -0.000000 -0.000001 0.000001 -0.000000 -0.000001 0.000000 0.000001 0.000000 3.798187 0.570266 -1.109546 0.789351 0.135991 -0.140070 0.788648 0.139073 -0.140101 -5.121953 -13.861130 6.450677 -18.398281 -57.039753 -18.467993 -0.000000 -0.000001 -0.000000 -0.000000 -0.000001 -0.000000 -0.000000 -0.000001 -0.000000 3.778154 -21.356432 -1.261998 15.442668 -18.624177 -61.994779 0.000012 -18.349237 0.000010 42.050398 6.853030 -15.823989 -1.540040 3.690177 6.142352 3.939058 7.948692 0.746811 0.000000 -0.000002 -0.000000 0.298624 2.009592 -16.903106 0.539674 2.676819 -22.793545 -0.000001 -0.000001 -0.000004 0.298066 2.007752 -16.887107 0.540429 2.678589 -22.809569 -0.000001 0.000002 -0.000001 0.298627 2.009578 -16.903108 0.539669 2.676819 -22.793545 -0.000002 0.000001 0.000002 1.465422 5.893267 -16.473127 0.545006 -1.382160 -23.265291 0.000000 -0.000001 0.000001 -0.000002 -0.000001 0.000002 0.641336 15.722648 9.188438 13.818467 -3.398190 53.553157 0.000009 31.811459 0.000007 15.308054 -23.941473 10.357915 -1.849256 -3.581790 -6.586145 4.637219 -8.634116 -0.225393 -0.000002 -0.000000 0.000000 0.480719 -2.544891 21.389412 1.003303 -3.603096 31.111297 -0.000001 0.000001 -0.000001 0.480708 -2.544891 21.389403 1.003301 -3.603100 31.111303 -0.000004 -0.000001 0.000003 0.480710 -2.544881 21.389412 1.003293 -3.603109 31.111300 -0.000002 0.000002 0.000001 0.480704 -2.544884 21.389393 1.003303 -3.603105 31.111303 -0.000004 0.000001 -0.000005 0.000001 0.000001 0.000001 0.000000 0.000000 0.000000 0.000000 0.000000 0.000000 0.000000 0.000000 0.000000 0.000000 0.000000 0.000000 0.000000 0.000000 0.000000 0.000000 0.000000 0.000000 0.000000 0.000000 0.000000 0.000000 0.000000 0.000000 0.000000 0.000000 0.000000 0.000000 -0.000000 0.000000 0.000000 -0.000000 0.000000 -0.000000 0.000000 0.000000 
